<svg version="1.1" id="Layer_1" xmlns="http://www.w3.org/2000/svg" xmlns:xlink="http://www.w3.org/1999/xlink" x="0px" y="0px"
	 width="100%" viewBox="0 0 1024 544" enable-background="new 0 0 1024 544" xml:space="preserve">
<defs>
	<linearGradient id="bg" x1="0%" y1="0%" x2="100%" y2="100%">
		<stop offset="0%" stop-color="#f3faf6" />
		<stop offset="100%" stop-color="#e8f3ee" />
	</linearGradient>
</defs>
<rect x="0" y="0" width="1024" height="544" fill="url(#bg)"/>
<path fill="#000000" opacity="1.000000" stroke="none" 
	d="
M362.999969,435.258606 
	C331.167328,435.256012 299.834717,435.255432 268.502106,435.245605 
	C261.687256,435.243469 261.674347,435.228241 261.670959,428.269470 
	C261.665405,416.769775 261.817596,405.267548 261.610748,393.771667 
	C261.534760,389.547729 262.380615,387.507294 267.262390,387.381775 
	C293.091217,386.717621 318.920166,387.308167 344.746979,387.061157 
	C351.746094,386.994202 358.749420,386.923431 365.744720,387.098572 
	C369.313293,387.187958 370.871063,386.021545 370.865875,382.259033 
	C370.802826,336.593597 370.811737,290.928040 370.887360,245.262619 
	C370.893494,241.561005 369.410614,240.297791 365.818665,240.315247 
	C347.819550,240.402725 329.819000,240.421036 311.820770,240.260681 
	C308.079895,240.227356 307.423981,241.934143 307.354370,245.109131 
	C307.180817,253.023697 307.073853,253.016144 299.331329,253.024536 
	C288.664978,253.036087 277.996246,252.932129 267.333405,253.134079 
	C263.048309,253.215240 261.359283,251.759445 261.551392,247.334412 
	C261.781769,242.028748 261.452057,236.690781 261.197113,231.374847 
	C261.033905,227.971252 262.358368,226.266769 265.831879,226.702042 
	C270.547119,227.292877 274.574646,225.584549 278.639435,223.460861 
	C292.224304,216.363281 305.919098,209.476501 319.530884,202.429993 
	C364.086273,179.364700 408.966278,156.935089 453.569336,133.963120 
	C456.302094,132.555664 458.807404,131.349152 459.105072,127.642868 
	C459.342163,124.690659 462.034088,124.946297 464.189484,124.960854 
	C466.377869,124.975616 468.955383,124.915588 469.025421,127.944725 
	C469.101379,131.229767 471.126373,132.458878 473.608185,133.760300 
	C530.265564,163.470383 586.913818,193.198151 643.510132,223.024368 
	C648.357666,225.579041 653.166138,227.105240 658.729248,226.794998 
	C664.708313,226.461533 670.724487,226.734787 676.722778,226.840927 
	C678.667297,226.875320 680.794250,226.629395 682.450256,228.879730 
	C680.462341,231.858383 679.538452,235.211746 681.734436,238.492844 
	C680.096680,240.809525 677.920288,240.262909 676.029236,240.264664 
	C611.031189,240.325394 546.033081,240.351501 481.035034,240.346664 
	C475.826141,240.346283 475.097076,238.945053 474.878632,231.461258 
	C474.736481,226.592499 477.818176,226.705948 481.160126,226.708893 
	C500.492920,226.725891 519.825867,226.734253 539.158386,226.664978 
	C541.389221,226.656998 543.836548,227.345520 546.652527,224.815201 
	C521.193298,198.229156 495.810150,171.722549 470.557800,145.352539 
	C469.046173,145.786377 469.213959,146.734558 469.212677,147.491516 
	C469.178345,167.824036 468.503632,188.183945 469.339386,208.481506 
	C470.192963,229.211838 471.899963,249.925583 474.132629,270.585663 
	C477.964691,306.045959 479.802887,341.612183 478.950531,377.299652 
	C478.702789,387.671936 478.931213,387.161896 489.322998,387.313995 
	C503.577484,387.522583 501.809113,385.708038 501.761658,398.817841 
	C501.735748,405.981262 502.027893,413.147766 501.411438,420.293793 
	C501.068481,424.269684 502.395142,426.133148 506.681274,426.019257 
	C514.632751,425.807953 522.593933,425.958710 530.317261,425.958710 
	C531.224060,423.687500 530.122681,422.408142 529.413269,421.198883 
	C524.714600,413.189850 523.943787,404.547913 523.362732,395.391022 
	C522.642578,384.040192 525.530457,375.841461 535.689087,370.294861 
	C538.698730,368.651611 541.320007,366.096741 543.724792,363.582367 
	C552.067444,354.859589 562.212585,350.196716 574.029907,347.797302 
	C591.629944,344.223755 609.028564,339.648621 626.486389,335.390808 
	C632.251160,333.984802 637.771057,335.244049 643.254333,336.571167 
	C663.473755,341.464935 683.651917,346.528595 703.855347,351.488770 
	C713.475830,353.850739 715.898376,358.465820 711.352112,367.508057 
	C705.666748,378.815765 699.460632,389.861725 693.470581,401.016022 
	C689.235718,408.902100 684.986389,416.780487 680.742249,424.664734 
	C683.036072,426.627930 685.288696,425.936249 687.336487,425.940704 
	C711.502441,425.993347 735.668518,425.958893 759.834595,425.981415 
	C764.671997,425.985931 765.744934,427.411560 765.130676,431.973755 
	C764.625244,435.727600 761.912598,435.200195 759.488281,435.203766 
	C735.822144,435.238617 712.156067,435.241455 688.489929,435.242889 
	C580.159973,435.249542 471.829987,435.252838 362.999969,435.258606 
M420.500000,334.212799 
	C411.517487,334.213654 402.534882,334.235382 393.552521,334.201904 
	C391.052307,334.192596 388.954132,334.444122 388.374847,337.544708 
	C385.663391,352.056641 382.126923,366.425812 383.151245,381.434937 
	C383.448151,385.785309 384.722260,387.162689 388.998016,387.137177 
	C412.783783,386.995239 436.571198,387.016785 460.357239,387.136902 
	C464.273041,387.156677 465.820770,385.982391 466.242523,381.832581 
	C467.738800,367.110718 463.661407,353.190002 460.954865,339.036346 
	C460.236115,335.277435 458.549377,334.117157 454.934174,334.164612 
	C443.791168,334.310913 432.644958,334.214111 420.500000,334.212799 
M602.264038,209.303879 
	C562.130005,188.363785 521.995972,167.423691 481.861969,146.483582 
	C505.936523,173.081451 530.613403,198.760406 555.235352,224.491852 
	C557.359619,226.711868 559.887695,226.723709 562.576843,226.720413 
	C583.891785,226.694305 605.206726,226.706802 626.521545,226.652573 
	C628.269897,226.648132 630.160706,227.173538 632.623779,225.340683 
	C622.428284,219.951065 612.677612,214.796539 602.264038,209.303879 
M424.478882,319.905762 
	C427.311310,319.899109 430.143890,319.871765 432.976135,319.891998 
	C435.421875,319.909454 436.453735,318.804382 436.690826,316.293274 
	C437.400879,308.773804 437.495636,308.782684 444.917908,308.682404 
	C446.917206,308.655426 448.948700,308.848389 450.909485,308.559906 
	C455.952026,307.818054 458.025360,309.724121 457.344879,314.864319 
	C457.001617,317.456970 457.238281,319.792572 460.983215,319.999573 
	C465.306671,320.238586 466.055237,318.086578 465.721619,314.494446 
	C464.182800,297.926239 462.720367,281.350952 461.214294,264.779694 
	C460.587952,257.887817 459.921112,250.999634 459.146118,242.764572 
	C435.532837,268.808197 412.810791,293.868896 389.205688,319.903534 
	C401.594818,319.903534 412.539917,319.903534 424.478882,319.905762 
M383.265106,294.495972 
	C383.265106,299.661835 383.265106,304.827698 383.265106,309.993561 
	C383.773132,310.101349 384.281189,310.209167 384.789215,310.316986 
	C405.355255,287.589355 425.921326,264.861755 446.400879,242.229691 
	C444.677734,240.144531 443.096100,240.366241 441.634216,240.364410 
	C423.980743,240.342270 406.327057,240.395172 388.673889,240.317566 
	C384.623962,240.299774 383.142761,241.947342 383.185913,246.033279 
	C383.352936,261.853119 383.259460,277.675720 383.265106,294.495972 
M458.893463,179.500000 
	C458.893463,169.246841 458.893463,158.993683 458.893463,148.740524 
	C458.473663,148.559265 458.053864,148.378006 457.634033,148.196747 
	C439.243622,168.949524 420.853180,189.702286 401.961609,211.020584 
	C403.772949,211.460861 404.387817,211.739868 405.003235,211.741013 
	C421.651398,211.772141 438.299866,211.728027 454.947601,211.819214 
	C458.549500,211.838943 458.939087,209.769241 458.922333,206.971252 
	C458.869507,198.147751 458.896820,189.323792 458.893463,179.500000 
M413.197998,183.707062 
	C424.192993,171.273682 435.187988,158.840302 446.182953,146.406937 
	C445.851868,146.058044 445.520752,145.709167 445.189667,145.360275 
	C414.215912,161.199432 383.242157,177.038589 352.215149,192.904999 
	C353.765686,195.849030 355.534393,195.508789 357.143585,195.477814 
	C362.130249,195.381836 367.115692,195.145416 372.102142,195.128891 
	C383.008301,195.092728 382.974457,195.135117 383.225525,206.219498 
	C383.267761,208.083359 382.434723,210.528534 384.938934,211.452515 
	C387.551514,212.416458 389.210571,210.746597 390.850586,208.874435 
	C398.087311,200.613464 405.426819,192.442566 413.197998,183.707062 
M410.500183,226.688370 
	C424.978882,226.690353 439.457581,226.701950 453.936279,226.684448 
	C456.239563,226.681671 458.822449,227.088013 458.823517,223.428452 
	C458.824615,219.724716 456.205750,219.598129 453.669983,219.605118 
	C435.384186,219.655472 417.098175,219.876648 398.813141,219.807404 
	C394.140259,219.789703 391.499847,221.762924 389.622070,226.688065 
	C396.631348,226.688065 403.065857,226.688065 410.500183,226.688370 
M315.465149,226.681381 
	C318.451385,226.667923 321.437592,226.656937 324.423828,226.640121 
	C326.399933,226.628998 327.571350,225.729065 327.590637,223.660416 
	C327.642731,218.079361 327.572418,212.507599 326.226929,206.140167 
	C312.985138,212.852097 300.269501,219.297333 287.553864,225.742554 
	C287.629242,226.055115 287.704620,226.367661 287.779999,226.680206 
	C296.678894,226.680206 305.577820,226.680206 315.465149,226.681381 
M630.102356,366.738281 
	C630.093933,384.721832 630.065308,402.705444 630.110046,420.688843 
	C630.114258,422.379211 629.388977,425.165588 631.763672,425.259308 
	C634.812683,425.379700 633.743896,422.337006 633.751282,420.619324 
	C633.831421,401.969879 633.816772,383.319763 633.741089,364.670197 
	C633.734009,362.917938 634.635254,360.492554 631.673828,359.858490 
	C629.313110,361.421783 630.406738,363.804382 630.102356,366.738281 
z"/>
<path fill="#000000" opacity="1.000000" stroke="none" 
	d="
M630.256348,252.022293 
	C634.610901,251.865631 634.052246,254.798859 634.124329,257.218018 
	C634.353943,264.925293 634.330505,264.932373 642.159119,265.045685 
	C645.213257,265.089905 648.159485,264.891876 648.657654,269.285950 
	C648.890564,271.340271 651.308350,270.887115 652.897339,270.893158 
	C661.223755,270.924835 669.550598,270.848358 677.877014,270.877075 
	C680.302124,270.885437 683.228394,270.356873 683.258240,274.245148 
	C683.283020,277.473297 684.240173,281.025879 679.445618,282.127167 
	C675.075378,283.131012 670.798645,284.556458 666.506836,285.880798 
	C664.330078,286.552551 661.996216,286.902863 660.964539,289.569977 
	C660.229431,291.470093 658.210632,291.115448 656.575562,291.116516 
	C628.597900,291.134857 600.620239,291.133362 572.642578,291.150421 
	C570.259644,291.151855 568.079102,291.122955 566.721008,288.509247 
	C565.636353,286.421631 563.146667,286.196320 561.136902,285.539093 
	C557.503052,284.350891 553.821350,283.272797 550.101868,282.393219 
	C546.649597,281.576813 545.337402,279.911621 545.436157,276.115143 
	C545.547974,271.817474 547.211731,270.731354 551.159729,270.838654 
	C559.314026,271.060272 567.478333,270.909882 575.638489,270.924103 
	C578.080750,270.928345 580.146057,270.824738 580.751709,267.574371 
	C581.411255,264.034637 584.657715,265.194031 586.912781,265.162598 
	C590.795288,265.108521 594.447266,265.259308 594.240906,259.718231 
	C594.184204,258.194122 595.370972,257.418213 596.973938,257.488220 
	C598.608337,257.559570 599.113281,258.574432 599.557678,259.997101 
	C601.037109,264.732910 604.551270,266.365662 609.221619,264.843903 
	C611.516602,264.096130 611.633606,262.369598 611.642761,260.485168 
	C611.662292,256.488464 611.688599,252.491577 611.665649,248.495056 
	C611.654541,246.562592 612.275146,245.164932 614.441284,245.195160 
	C616.596313,245.225220 617.203247,246.689911 617.210938,248.572632 
	C617.227356,252.569321 617.392578,256.572021 617.225403,260.560852 
	C617.074280,264.165833 618.831360,265.199799 622.089294,265.121948 
	C625.297363,265.045258 628.085388,265.017944 628.116272,260.541992 
	C628.135864,257.703308 627.075562,254.463989 630.256348,252.022293 
z"/>
<path fill="#000000" opacity="1.000000" stroke="none" 
	d="
M567.224609,320.631836 
	C567.880615,317.037872 570.441528,317.085175 572.729004,317.050568 
	C579.384399,316.949829 586.042297,317.033539 592.698853,316.993164 
	C596.190491,316.971985 597.975464,318.578033 597.910217,322.121002 
	C597.904114,322.453552 597.917297,322.786774 597.930054,323.119354 
	C598.489441,337.729248 598.490601,337.733398 584.399597,341.180695 
	C580.522766,342.129181 576.608398,342.938629 572.764648,344.004456 
	C568.703735,345.130493 566.822449,344.023865 566.992310,339.540619 
	C567.225281,333.391083 567.117859,327.228699 567.224609,320.631836 
z"/>
<path fill="#000000" opacity="1.000000" stroke="none" 
	d="
M670.539307,317.088989 
	C677.642944,317.052734 684.301880,317.157715 690.956238,317.028473 
	C695.097229,316.948090 697.098755,318.539673 696.988403,322.867920 
	C696.840027,328.688416 696.914062,334.517426 697.019714,340.340454 
	C697.080200,343.674896 695.607117,344.971375 692.414673,344.212860 
	C684.814697,342.407196 677.225159,340.557465 669.640137,338.689728 
	C667.659790,338.202087 666.435303,336.950012 666.384216,334.817383 
	C666.280762,330.503784 666.174438,326.189575 666.149170,321.875122 
	C666.133850,319.248871 667.113403,317.327606 670.539307,317.088989 
z"/>
<path fill="#000000" opacity="1.000000" stroke="none" 
	d="
M667.379761,313.750549 
	C665.550171,307.980713 666.540955,302.346313 666.288757,296.779358 
	C666.188049,294.555267 668.298340,293.942261 670.281250,293.933136 
	C677.773193,293.898743 685.265442,293.913147 692.757385,293.876587 
	C695.401672,293.863678 696.857544,295.101227 696.883240,297.752411 
	C696.925110,302.079102 696.943665,306.408966 696.815796,310.732880 
	C696.764893,312.453827 696.142395,314.307770 694.016479,314.218262 
	C685.242676,313.848999 676.454285,315.645233 667.379761,313.750549 
z"/>
<path fill="#000000" opacity="1.000000" stroke="none" 
	d="
M597.294983,311.540466 
	C596.610046,314.866241 594.331970,314.901428 592.162476,314.692505 
	C586.181824,314.116486 580.229919,314.331329 574.246094,314.712860 
	C567.831543,315.121948 566.894531,314.146729 567.059204,307.830078 
	C567.470337,292.059540 564.507629,293.981781 581.153687,293.833252 
	C585.142456,293.797668 589.132141,293.889221 593.121399,293.886200 
	C595.978333,293.884033 597.416382,295.189270 597.376343,298.125092 
	C597.317322,302.445862 597.344116,306.767822 597.294983,311.540466 
z"/>
<path fill="#000000" opacity="1.000000" stroke="none" 
	d="
M564.142944,320.259216 
	C564.356628,324.874481 564.505005,329.025452 564.635986,333.176971 
	C564.750427,336.803436 563.200806,339.204559 559.361755,338.647034 
	C552.726074,337.683441 546.083435,338.155548 539.448914,338.086639 
	C535.399780,338.044586 533.946655,336.449371 533.941650,332.376282 
	C533.923584,317.690552 533.813171,317.687927 548.593689,317.620544 
	C552.250610,317.603882 555.908386,317.569092 559.564392,317.626251 
	C561.357300,317.654266 563.350464,317.455048 564.142944,320.259216 
z"/>
<path fill="#000000" opacity="1.000000" stroke="none" 
	d="
M600.699707,308.861267 
	C600.632874,305.406677 600.665894,302.404144 600.473999,299.416046 
	C600.235291,295.699677 601.624512,293.798615 605.571533,293.875000 
	C612.397034,294.007050 619.226074,293.978638 626.053589,293.974060 
	C628.888428,293.972137 630.399963,295.140259 630.353027,298.143250 
	C630.290649,302.138641 630.292847,306.138000 630.399658,310.132111 
	C630.476746,313.018005 629.353333,314.491119 626.336853,314.442963 
	C619.514587,314.334045 612.697571,314.157379 605.872131,314.715454 
	C602.292297,315.008179 600.145996,313.301575 600.699707,308.861267 
z"/>
<path fill="#000000" opacity="1.000000" stroke="none" 
	d="
M640.214722,293.906799 
	C646.005920,293.889465 651.319397,293.864929 656.632874,293.872040 
	C662.789307,293.880280 663.240234,294.314606 663.275452,300.254120 
	C663.294189,303.408936 663.187500,306.566315 663.280518,309.718323 
	C663.370117,312.755096 662.301147,314.364044 658.987183,314.317444 
	C652.014771,314.219421 645.038818,314.251770 638.066040,314.352264 
	C634.905212,314.397827 633.501038,313.067566 633.620483,309.893188 
	C633.739075,306.742249 633.932495,303.558899 633.626770,300.435425 
	C633.165588,295.724030 634.931519,293.496124 640.214722,293.906799 
z"/>
<path fill="#000000" opacity="1.000000" stroke="none" 
	d="
M621.102356,332.224243 
	C615.537537,333.551636 610.376160,334.787292 605.228394,336.077362 
	C602.196960,336.837128 600.476074,336.246124 600.562378,332.590332 
	C600.640442,329.288483 600.218018,325.974548 600.012146,322.666229 
	C599.783752,318.996643 601.410034,316.958191 605.177734,316.980988 
	C612.146118,317.023193 619.114563,317.107361 626.081909,317.234497 
	C628.782166,317.283783 630.728210,318.489990 630.306885,321.466553 
	C629.851257,324.685089 632.742554,329.114319 627.301819,330.698853 
	C625.392273,331.255005 623.442810,331.673920 621.102356,332.224243 
z"/>
<path fill="#000000" opacity="1.000000" stroke="none" 
	d="
M646.012695,317.638794 
	C650.672974,317.629913 654.838501,317.692291 659.000000,317.590576 
	C661.868530,317.520508 663.372742,318.578156 663.295044,321.629791 
	C663.201782,325.291595 663.235168,328.957947 663.279358,332.621521 
	C663.313416,335.445221 662.063965,336.663239 659.255615,335.994965 
	C651.813782,334.223969 644.351685,332.527863 636.950195,330.600281 
	C631.238342,329.112732 634.101685,324.350525 633.727112,320.972717 
	C633.344666,317.523895 636.136536,317.620697 638.520813,317.611816 
	C640.852539,317.603180 643.184448,317.629242 646.012695,317.638794 
z"/>
<path fill="#000000" opacity="1.000000" stroke="none" 
	d="
M541.653076,359.716614 
	C539.307129,361.196259 538.069214,363.759460 534.652649,363.912750 
	C533.558044,356.863617 533.895630,349.820312 534.371399,342.798157 
	C534.496399,340.953766 536.318848,340.772675 537.868896,340.741211 
	C545.343384,340.589447 552.817810,340.400421 560.293152,340.345551 
	C561.949951,340.333405 563.713623,340.709290 564.100342,342.822388 
	C564.410095,344.515015 563.822021,345.979462 562.063904,346.264709 
	C553.356384,347.677307 548.548096,354.944183 541.653076,359.716614 
z"/>
</svg>