<svg xmlns="http://www.w3.org/2000/svg" width="1280" height="720" viewBox="0 0 1280 720" role="img" aria-label="Montana project cover">
	<defs>
		<linearGradient id="bg" x1="0%" y1="0%" x2="100%" y2="100%">
			<stop offset="0%" stop-color="#f3faf6" />
			<stop offset="100%" stop-color="#e8f3ee" />
		</linearGradient>
	</defs>
	<rect width="1280" height="720" fill="url(#bg)" />
	<g opacity="0.9">
		<path d="M0 470 L170 290 L310 420 L470 230 L610 410 L760 260 L940 450 L1110 300 L1280 500 L1280 720 L0 720 Z" fill="#9fb7ab" />
		<path d="M0 540 L190 360 L360 520 L560 300 L740 510 L930 350 L1140 540 L1280 430 L1280 720 L0 720 Z" fill="#7f9f90" />
		<path d="M0 620 L220 430 L390 590 L620 390 L820 600 L1040 430 L1280 620 L1280 720 L0 720 Z" fill="#5f7f70" />
	</g>
	<g fill="#3d5a4a">
		<circle cx="170" cy="290" r="13" />
		<circle cx="470" cy="230" r="13" />
		<circle cx="760" cy="260" r="13" />
		<circle cx="1110" cy="300" r="13" />
	</g>
	<g stroke="#3d5a4a" stroke-width="4" opacity="0.8">
		<path d="M170 290 L470 230 L760 260 L1110 300" fill="none" />
	</g>
</svg>
